<mxfile host="app.diagrams.net" modified="2022-09-20T01:26:11.830Z" agent="5.0 (Macintosh; Intel Mac OS X 10_15_7) AppleWebKit/537.36 (KHTML, like Gecko) Chrome/104.0.0.0 Safari/537.36" etag="3VxNvzP9iP9tEsgalrn0" version="20.3.3" type="github">
  <diagram id="5TdfPBAJto_R0d6EPSnp" name="Page-1">
    <mxGraphModel dx="946" dy="614" grid="1" gridSize="10" guides="1" tooltips="1" connect="1" arrows="1" fold="1" page="1" pageScale="1" pageWidth="827" pageHeight="1169" background="none" math="0" shadow="1">
      <root>
        <mxCell id="0" />
        <mxCell id="1" parent="0" />
        <mxCell id="FUg5J9aVBCaIexgjL72Z-1" value="HTML Dynamic Font Size" style="rounded=1;whiteSpace=wrap;html=1;sketch=1;" parent="1" vertex="1">
          <mxGeometry x="100" y="290" width="130" height="41.25" as="geometry" />
        </mxCell>
        <mxCell id="FUg5J9aVBCaIexgjL72Z-2" value="Webpack Postcss Plugin" style="rounded=1;whiteSpace=wrap;html=1;sketch=1;" parent="1" vertex="1">
          <mxGeometry x="100" y="341.25" width="130" height="40" as="geometry" />
        </mxCell>
        <mxCell id="FUg5J9aVBCaIexgjL72Z-3" value="Package Json Config" style="rounded=1;whiteSpace=wrap;html=1;sketch=1;" parent="1" vertex="1">
          <mxGeometry x="100" y="391.25" width="130" height="40" as="geometry" />
        </mxCell>
        <mxCell id="FUg5J9aVBCaIexgjL72Z-4" value="" style="rounded=1;whiteSpace=wrap;html=1;sketch=1;" parent="1" vertex="1">
          <mxGeometry x="300" y="232.5" width="210" height="267.5" as="geometry" />
        </mxCell>
        <mxCell id="FUg5J9aVBCaIexgjL72Z-5" value="Vite/Webpack Plugin" style="rounded=1;whiteSpace=wrap;html=1;sketch=1;" parent="1" vertex="1">
          <mxGeometry x="340" y="250" width="130" height="30" as="geometry" />
        </mxCell>
        <mxCell id="FUg5J9aVBCaIexgjL72Z-6" value="TypeScript" style="rounded=1;whiteSpace=wrap;html=1;sketch=1;" parent="1" vertex="1">
          <mxGeometry x="340" y="290" width="130" height="30" as="geometry" />
        </mxCell>
        <mxCell id="FUg5J9aVBCaIexgjL72Z-7" value="postcss-pxtorem" style="rounded=1;whiteSpace=wrap;html=1;sketch=1;" parent="1" vertex="1">
          <mxGeometry x="340" y="330" width="130" height="30" as="geometry" />
        </mxCell>
        <mxCell id="FUg5J9aVBCaIexgjL72Z-8" value="postcss-px-to-viewport" style="rounded=1;whiteSpace=wrap;html=1;sketch=1;" parent="1" vertex="1">
          <mxGeometry x="340" y="370" width="130" height="30" as="geometry" />
        </mxCell>
        <mxCell id="FUg5J9aVBCaIexgjL72Z-9" value="flexiblejs" style="rounded=1;whiteSpace=wrap;html=1;sketch=1;" parent="1" vertex="1">
          <mxGeometry x="340" y="410" width="130" height="30" as="geometry" />
        </mxCell>
        <mxCell id="FUg5J9aVBCaIexgjL72Z-10" value="vite-plugin-flexible" style="rounded=1;whiteSpace=wrap;html=1;sketch=1;" parent="1" vertex="1">
          <mxGeometry x="600" y="296.25" width="130" height="40" as="geometry" />
        </mxCell>
        <mxCell id="FUg5J9aVBCaIexgjL72Z-11" value="webpack-plugin-flexible" style="rounded=1;whiteSpace=wrap;html=1;sketch=1;" parent="1" vertex="1">
          <mxGeometry x="600" y="386.25" width="130" height="40" as="geometry" />
        </mxCell>
        <mxCell id="FUg5J9aVBCaIexgjL72Z-12" value="rollup" style="rounded=1;whiteSpace=wrap;html=1;sketch=1;" parent="1" vertex="1">
          <mxGeometry x="340" y="450" width="130" height="30" as="geometry" />
        </mxCell>
        <mxCell id="FUg5J9aVBCaIexgjL72Z-13" value="" style="endArrow=classic;html=1;rounded=1;entryX=-0.005;entryY=0.477;entryDx=0;entryDy=0;entryPerimeter=0;sketch=1;curved=1;" parent="1" target="FUg5J9aVBCaIexgjL72Z-4" edge="1">
          <mxGeometry width="50" height="50" relative="1" as="geometry">
            <mxPoint x="230" y="360" as="sourcePoint" />
            <mxPoint x="440" y="390" as="targetPoint" />
          </mxGeometry>
        </mxCell>
        <mxCell id="FUg5J9aVBCaIexgjL72Z-14" value="" style="endArrow=classic;html=1;rounded=1;entryX=0;entryY=0.5;entryDx=0;entryDy=0;sketch=1;curved=1;" parent="1" target="FUg5J9aVBCaIexgjL72Z-10" edge="1">
          <mxGeometry width="50" height="50" relative="1" as="geometry">
            <mxPoint x="510" y="360" as="sourcePoint" />
            <mxPoint x="578.95" y="360.09749999999997" as="targetPoint" />
          </mxGeometry>
        </mxCell>
        <mxCell id="FUg5J9aVBCaIexgjL72Z-15" value="" style="endArrow=classic;html=1;rounded=1;entryX=0;entryY=0.5;entryDx=0;entryDy=0;sketch=1;curved=1;" parent="1" target="FUg5J9aVBCaIexgjL72Z-11" edge="1">
          <mxGeometry width="50" height="50" relative="1" as="geometry">
            <mxPoint x="510" y="360" as="sourcePoint" />
            <mxPoint x="610" y="326.25" as="targetPoint" />
          </mxGeometry>
        </mxCell>
      </root>
    </mxGraphModel>
  </diagram>
</mxfile>
